<svg width="222" height="68" fill="none" xmlns="http://www.w3.org/2000/svg"><path d="M65.244 17.666L35.544.533a3.78 3.78 0 00-3.87 0l-29.7 17.133C.79 18.376 0 19.639 0 21.06v25.107c0 1.421.71 2.684 1.975 3.395l29.7 17.133c.631.315 1.263.552 1.974.552.71 0 1.343-.158 1.975-.552l29.7-17.133c1.184-.71 1.974-1.974 1.974-3.395V21.06a4.24 4.24 0 00-2.054-3.394zM60.347 39.93l-10.98-6.316 10.98-6.316V39.93zM33.649 7.323L57.424 21.06 33.65 34.798 9.795 21.06 33.649 7.323zM6.872 27.219l10.98 6.316-10.98 6.316V27.219zm26.777 32.607L9.795 46.088l14.85-8.606 6.95 4.027c.632.316 1.264.553 1.975.553.71 0 1.343-.158 1.975-.553l6.95-4.027 14.85 8.606L33.65 59.826zm97.55-36.239c-8.215 0-13.902 5.605-13.902 13.659 0 8.053 5.687 13.658 13.823 13.658 8.215 0 13.902-5.605 13.902-13.659 0-8.053-5.687-13.658-13.823-13.658zm0 21.08c-4.265 0-6.951-2.921-6.951-7.422 0-4.5 2.765-7.421 6.951-7.421 4.107 0 6.951 3 6.951 7.421-.079 4.422-2.844 7.422-6.951 7.422zm29.147-10.264c-3.239-.474-6.082-.868-6.082-3.079 0-1.105.789-2.526 4.423-2.526 2.922 0 5.055 1.263 5.687 3.474l6.24-1.422c-1.343-4.737-5.45-7.342-11.532-7.342-6.793 0-11.374 3.158-11.374 7.895 0 6.632 5.845 7.422 10.584 8.132 3.317.474 6.24.869 6.24 3.237 0 1.263-.948 2.763-5.45 2.763-3.397 0-5.687-1.263-6.398-3.552l-6.24 1.263c1.422 4.895 5.687 7.5 12.48 7.5 7.504 0 12.243-3.158 12.243-8.21.079-6.554-5.924-7.422-10.821-8.133zm23.933 10.58c-2.054 0-3.239-1.421-3.239-3.869V30.061h10.585v-5.764H181.04v-8.053h-6.871v24.95c0 6.236 3.475 9.79 9.478 9.79 5.213 0 8.61-2.37 9.795-6.79l-5.53-1.738c-.631 1.58-1.895 2.527-3.633 2.527zm30.726-17.37l-.237-.315c-1.737-2.448-4.581-3.711-8.372-3.711-6.951 0-11.928 5.763-11.928 13.659 0 7.974 4.977 13.737 11.77 13.737 3.791 0 6.635-1.342 8.451-3.947l.237-.316v.079l1.343 3.474h5.45V24.376h-5.45l-1.264 3.237zm-6.951 17.054c-4.028 0-6.714-2.921-6.714-7.5 0-4.5 2.607-7.422 6.714-7.422 4.108 0 6.793 2.921 6.793 7.422 0 4.5-2.764 7.5-6.793 7.5zm-105.212-21.08c-3.633 0-6.398 1.264-8.214 3.711l-.395.553V16.324H87.36v33.949h5.45l1.422-3.632.237.316c1.895 2.684 4.739 4.027 8.451 4.027 6.951 0 11.77-5.606 11.77-13.66-.079-8.131-4.898-13.737-11.849-13.737zm-1.737 21.08c-3.16 0-6.872-1.263-6.872-7.5 0-4.58 2.685-7.5 6.951-7.5 3.949 0 6.556 3 6.556 7.5-.079 4.5-2.686 7.5-6.635 7.5z" fill="#E30613"/></svg>